<svg width="29" height="37" viewBox="0 0 29 37" fill="none" xmlns="http://www.w3.org/2000/svg">
<path d="M26.0667 15.6321L16.7699 0.56815C16.6624 0.393951 16.5143 0.25061 16.3394 0.151324C16.1645 0.0520385 15.9683 0 15.7689 0C15.5695 0 15.3734 0.0520385 15.1984 0.151324C15.0235 0.25061 14.8755 0.393951 14.768 0.56815L5.47092 15.6323C3.85914 17.9005 2.9929 20.6461 3.00004 23.464C3.00004 30.7679 8.72807 36.7103 15.7689 36.7103C22.8098 36.7103 28.5378 30.7681 28.5378 23.464C28.545 20.646 27.6787 17.9003 26.0667 15.6321V15.6321ZM15.7689 34.2444C10.0389 34.2444 5.37703 29.4084 5.37703 23.464C5.37095 21.1595 6.08278 18.9145 7.40646 17.0638C7.42226 17.0416 7.43731 17.0189 7.45163 16.9956L15.7689 3.51954L24.0859 16.9957C24.1002 17.019 24.1153 17.0417 24.1311 17.0638C25.4549 18.9146 26.1668 21.1595 26.1608 23.464C26.1608 29.4083 21.499 34.2444 15.7689 34.2444V34.2444Z" fill="#FAFEFE"/>
<line x1="2.07626" y1="32.002" x2="25.4716" y2="10.2314" stroke="#FAFEFE" stroke-width="3" stroke-linecap="round" stroke-linejoin="round"/>
</svg>
