<svg width="27" height="39" viewBox="0 0 27 39" fill="none" xmlns="http://www.w3.org/2000/svg">
<ellipse cx="13.409" cy="23.8205" rx="11.0252" ry="13.4052" fill="#AFD8FF"/>
<path d="M13.2504 1.06921L20.39 15.0882H6.11085L13.2504 1.06921Z" fill="#AFD8FF"/>
<path d="M23.9719 16.2057L14.3102 0.588998C14.1985 0.408406 14.0447 0.259805 13.8629 0.156877C13.6811 0.053948 13.4772 0 13.27 0C13.0628 0 12.8589 0.053948 12.6771 0.156877C12.4953 0.259805 12.3415 0.408406 12.2298 0.588998L2.56789 16.2059C0.892852 18.5573 -0.00737509 21.4037 4.55102e-05 24.325C4.55102e-05 31.8969 5.95284 38.0573 13.27 38.0573C20.5872 38.0573 26.54 31.8971 26.54 24.325C26.5474 21.4036 25.6471 18.5571 23.9719 16.2057ZM13.27 35.5009C7.31512 35.5009 2.47031 30.4875 2.47031 24.325C2.46399 21.9359 3.20376 19.6086 4.57938 17.6899C4.59579 17.6669 4.61144 17.6433 4.62631 17.6193L13.27 3.64868L21.9134 17.6193C21.9282 17.6435 21.9438 17.667 21.9603 17.69C23.3361 19.6086 24.0759 21.9359 24.0697 24.325C24.0697 30.4874 19.2249 35.5009 13.27 35.5009Z" fill="#FAFEFE"/>
</svg>
