<svg width="27" height="39" viewBox="0 0 27 39" fill="none" xmlns="http://www.w3.org/2000/svg">
<path d="M25.0697 20.5932C25.0697 29.8459 19.6077 37.3466 13.2252 37.3466C6.84257 37.3466 1.66846 29.8459 1.66846 20.5932C1.66846 11.3406 7.30436 20.5932 13.6869 20.5932C20.0695 20.5932 25.0697 11.3406 25.0697 20.5932Z" fill="#AFD8FF"/>
<path d="M23.9719 16.2584L14.3102 0.590913C14.1985 0.409735 14.0447 0.26065 13.8629 0.157387C13.6811 0.0541234 13.4772 0 13.27 0C13.0628 0 12.8589 0.0541234 12.6771 0.157387C12.4953 0.26065 12.3415 0.409735 12.2298 0.590913L2.56789 16.2586C0.892852 18.6177 -0.00737509 21.4733 4.55102e-05 24.4041C4.55102e-05 32.0007 5.95284 38.181 13.27 38.181C20.5872 38.181 26.54 32.0008 26.54 24.4041C26.5474 21.4732 25.6471 18.6175 23.9719 16.2584ZM13.27 35.6164C7.31512 35.6164 2.47031 30.5867 2.47031 24.4041C2.46399 22.0072 3.20376 19.6724 4.57938 17.7474C4.59579 17.7243 4.61144 17.7007 4.62631 17.6766L13.27 3.66055L21.9134 17.6766C21.9282 17.7008 21.9438 17.7245 21.9603 17.7475C23.3361 19.6724 24.0759 22.0072 24.0697 24.4041C24.0697 30.5866 19.2249 35.6164 13.27 35.6164Z" fill="#FAFEFE"/>
</svg>
